<svg width="462" height="462" viewBox="0 0 462 462" fill="none" xmlns="http://www.w3.org/2000/svg">
<path d="M243.836 146.855L244.794 147.007L300.675 16.5635L269.21 154.94L270.074 155.381L363.529 48.5879L290.844 170.471L291.529 171.156L413.411 98.4697L306.619 191.926L307.06 192.79L445.436 161.324L314.993 217.206L315.145 218.164L456.471 231L315.145 243.836L314.993 244.794L445.436 300.675L307.06 269.21L306.619 270.074L413.411 363.529L291.529 290.844L290.844 291.529L363.529 413.411L270.074 306.619L269.21 307.06L300.675 445.436L244.794 314.992L243.836 315.145L231 456.471L218.164 315.145L217.206 314.992L161.324 445.436L192.79 307.06L191.926 306.619L98.4697 413.411L171.156 291.529L170.471 290.844L48.5879 363.529L155.381 270.074L154.94 269.21L16.5635 300.675L147.008 244.794L146.855 243.836L5.52832 231L146.855 218.164L147.008 217.206L16.5635 161.324L154.94 192.79L155.381 191.926L48.5879 98.4697L170.471 171.156L171.156 170.471L98.4697 48.5879L191.926 155.381L192.79 154.94L161.324 16.5635L217.206 147.007L218.164 146.855L231 5.52832L243.836 146.855Z" fill="#BF6C08" stroke="white"/>
<circle cx="230.492" cy="226.846" r="106.239" fill="#BF6C08" stroke="#BF6C08" stroke-width="7.37769"/>
<path d="M229.757 278.256C220.748 274.513 202.918 261.6 203.663 239.892C204.595 212.756 225.097 199.656 229.757 192.171V153.807C220.28 167.151 178.579 190.503 176.683 238.875C175.167 277.572 211.434 300.591 229.757 307.263V278.256Z" fill="#FFFDFA" stroke="white" stroke-width="1.47554"/>
<circle cx="229.755" cy="226.108" r="102.55" stroke="white" stroke-width="4.42661"/>
<ellipse cx="229.754" cy="237.175" rx="8.85323" ry="9.591" fill="white"/>
<path d="M231.228 278.256C240.236 274.513 258.067 261.6 257.321 239.892C256.389 212.756 235.887 199.656 231.228 192.171V153.807C240.705 167.151 282.406 190.503 284.301 238.875C285.817 277.572 249.55 300.591 231.228 307.263V278.256Z" fill="#FFFDFA" stroke="white" stroke-width="1.47554"/>
</svg>
