<svg width="793" height="403" viewBox="0 0 793 403" fill="none" xmlns="http://www.w3.org/2000/svg">
<path d="M137.217 287.645C127.186 287.645 117.701 286.663 108.76 284.701C100.037 282.956 92.9502 279.467 87.4986 274.234C82.0469 269 79.3211 261.586 79.3211 251.991C79.3211 249.374 79.5392 246.648 79.9753 243.814C80.4115 240.761 81.0657 237.599 81.9379 234.328C84.1186 226.695 87.2805 218.736 91.4237 210.45C95.567 201.945 100.364 193.332 105.816 184.609C115.411 168.69 127.513 152.772 142.124 136.853C156.734 120.716 171.453 105.779 186.282 92.0406C174.724 92.2587 162.949 93.0219 150.955 94.3303C139.18 95.4206 128.386 96.729 118.573 98.2555C108.76 99.7819 100.91 101.526 95.0218 103.489C87.6076 105.67 81.5018 108.177 76.7044 111.012C72.125 113.847 69.8353 116.791 69.8353 119.844C69.8353 123.769 74.4147 127.803 83.5734 131.946C84.0095 132.165 84.2276 132.601 84.2276 133.255C84.2276 135.217 83.2463 135.981 81.2837 135.545C75.1779 132.928 70.5986 130.093 67.5457 127.04C64.7108 123.769 63.2934 120.498 63.2934 117.227C63.2934 113.302 65.365 109.486 69.5082 105.779C73.8695 102.072 79.9753 99.0187 87.8257 96.62C91.5328 95.5297 97.6386 94.4394 106.143 93.349C114.648 92.0406 124.679 90.8413 136.236 89.751C147.793 88.6606 160.005 87.7884 172.871 87.1342C185.955 86.48 198.711 86.1529 211.141 86.1529C223.789 86.1529 235.564 86.589 246.468 87.4613C257.371 88.3335 266.421 89.86 273.617 92.0406C280.813 94.0032 285.174 96.8381 286.701 100.545C287.355 101.854 287.682 103.38 287.682 105.125C287.682 108.832 286.373 112.866 283.757 117.227C281.14 121.37 278.087 125.295 274.598 129.003C273.508 130.093 272.417 130.638 271.327 130.638C270.019 130.638 269.364 129.984 269.364 128.675C269.364 127.803 269.801 126.931 270.673 126.059C276.561 119.953 278.959 114.065 277.869 108.395C277.433 105.343 275.143 102.835 271 100.872C267.075 98.6916 262.059 96.9471 255.953 95.6387C250.066 94.3303 243.742 93.349 236.982 92.6948C230.222 92.0406 223.898 91.7135 218.01 91.7135C209.288 91.7135 202.964 92.2587 199.039 93.349C197.076 93.7852 193.805 96.0748 189.226 100.218C184.646 104.361 179.413 109.486 173.525 115.592C167.855 121.479 162.077 127.694 156.189 134.236C150.519 140.778 145.286 146.775 140.488 152.226C135.691 157.678 132.093 161.821 129.694 164.656C139.943 163.566 149.865 162.694 159.46 162.039C169.273 161.167 179.522 160.731 190.207 160.731C195.441 160.731 200.783 160.84 206.235 161.058C211.904 161.276 217.792 161.712 223.898 162.366C227.387 162.585 229.131 163.348 229.131 164.656C229.131 165.528 228.368 166.292 226.842 166.946C225.315 167.6 224.007 167.927 222.917 167.927C220.082 167.927 217.029 167.927 213.758 167.927C210.705 167.709 207.434 167.6 203.945 167.6C194.786 167.6 185.191 167.818 175.161 168.254C165.13 168.69 155.644 169.345 146.703 170.217C137.762 171.089 130.13 172.07 123.806 173.161C117.046 182.537 110.722 192.786 104.835 203.908C99.165 214.811 95.1308 225.387 92.7321 235.636C91.4237 240.87 90.7695 245.667 90.7695 250.028C90.7695 258.097 92.6231 264.421 96.3302 269C100.255 273.361 105.38 276.414 111.704 278.159C118.028 279.903 124.897 280.775 132.311 280.775C141.906 280.775 153.136 279.685 166.002 277.505C178.868 275.542 191.842 272.162 204.926 267.365C218.228 262.349 229.895 255.807 239.926 247.739C243.633 244.904 246.904 241.742 249.739 238.253C252.791 234.764 255.517 231.166 257.916 227.459C258.57 226.586 259.115 226.15 259.551 226.15C260.206 226.15 260.533 226.695 260.533 227.786C260.533 228.876 260.206 229.966 259.551 231.057C257.371 234.546 254.972 238.144 252.355 241.851C249.739 245.558 246.904 248.938 243.851 251.991C234.256 261.368 223.462 268.673 211.468 273.906C199.693 279.14 187.372 282.738 174.506 284.701C161.859 286.663 149.429 287.645 137.217 287.645ZM275.748 271.617C270.514 271.617 266.371 269.981 263.318 266.71C260.265 263.221 258.194 258.86 257.103 253.626C256.013 248.393 255.577 243.05 255.795 237.599C256.449 228.222 258.521 217.537 262.01 205.543C265.499 193.55 269.969 181.338 275.421 168.908C281.09 156.261 287.305 144.376 294.065 133.255C301.043 122.134 308.349 112.539 315.981 104.47C323.613 96.4019 331.136 90.8413 338.55 87.7884C340.949 86.6981 343.021 86.0439 344.765 85.8258C346.51 85.3897 348.145 85.1716 349.672 85.1716C354.905 85.1716 358.394 87.6793 360.139 92.6948C361.011 94.4393 361.447 96.62 361.447 99.2368C361.447 104.47 359.703 110.576 356.214 117.554C353.161 123.878 348.799 131.074 343.13 139.143C337.46 146.993 331.027 155.061 323.831 163.348C316.853 171.416 309.766 179.266 302.57 186.899C295.374 194.313 288.723 200.964 282.617 206.852C276.511 212.739 271.605 217.21 267.898 220.263C266.589 227.459 265.935 234.219 265.935 240.543C265.935 247.303 267.025 253.19 269.206 258.206C271.605 263.221 275.53 265.729 280.981 265.729C286.215 265.729 291.339 263.657 296.355 259.514C301.37 255.371 305.95 250.465 310.093 244.795C314.454 239.125 318.052 234.11 320.887 229.748C321.759 228.876 322.305 228.44 322.523 228.44C323.177 228.44 323.504 228.985 323.504 230.075C323.504 230.948 323.177 231.929 322.523 233.019C318.598 239.125 314.236 245.122 309.439 251.01C304.641 256.897 299.408 261.804 293.738 265.729C288.069 269.654 282.072 271.617 275.748 271.617ZM269.206 214.702C274.003 210.341 280.218 204.126 287.85 196.057C295.701 187.989 303.769 179.048 312.056 169.235C320.56 159.423 328.301 149.828 335.279 140.451C342.258 130.856 347.382 122.352 350.653 114.937C351.961 112.321 353.052 109.486 353.924 106.433C354.796 103.38 355.232 100.545 355.232 97.9284C355.232 93.131 353.488 90.7323 349.999 90.7323C345.201 90.7323 338.769 94.5484 330.7 102.181C321.759 110.467 313.146 121.043 304.859 133.909C296.573 146.557 289.268 159.968 282.944 174.142C276.838 188.098 272.259 201.618 269.206 214.702ZM342.235 271.617C333.295 271.617 326.753 269.654 322.61 265.729C318.466 261.586 316.395 256.134 316.395 249.374C316.395 247.63 316.504 245.885 316.722 244.141C317.158 242.178 317.594 240.215 318.03 238.253C319.121 234.328 320.865 229.748 323.264 224.515C325.881 219.281 329.042 214.157 332.75 209.141C336.457 204.126 340.491 199.983 344.852 196.712C349.213 193.441 353.793 191.805 358.59 191.805C362.515 191.805 365.459 193.223 367.422 196.057C369.602 198.892 370.693 202.272 370.693 206.197C370.693 210.341 369.384 214.593 366.768 218.954C364.369 223.097 361.098 226.477 356.955 229.094C352.157 232.365 346.706 234.001 340.6 234.001C336.675 234.001 333.077 233.237 329.806 231.711C326.535 238.253 324.899 244.686 324.899 251.01C324.899 255.589 326.208 259.514 328.824 262.785C331.441 266.056 335.802 267.692 341.908 267.692C349.322 267.692 355.864 265.947 361.534 262.458C367.204 258.751 372.437 253.954 377.235 248.066C382.25 242.178 387.048 235.854 391.627 229.094C392.281 228.44 392.717 228.113 392.935 228.113C393.59 228.113 393.917 228.658 393.917 229.748C393.917 230.839 393.59 231.929 392.935 233.019C389.01 239.125 384.54 245.122 379.524 251.01C374.727 256.897 369.275 261.804 363.17 265.729C357.064 269.654 350.086 271.617 342.235 271.617ZM337.329 229.421C342.999 229.421 348.341 227.459 353.357 223.534C355.755 221.789 357.827 219.717 359.572 217.319C361.316 214.92 362.515 212.521 363.17 210.123C363.824 207.724 364.151 205.652 364.151 203.908C364.151 198.892 362.297 196.385 358.59 196.385C356.192 196.385 353.466 197.802 350.413 200.637C347.796 203.035 345.07 206.088 342.235 209.795C339.619 213.503 337.329 217.101 335.366 220.59C333.404 223.861 332.095 226.259 331.441 227.786C332.968 228.876 334.93 229.421 337.329 229.421ZM406.949 270.635C404.551 270.635 402.479 270.09 400.735 269C398.118 267.692 396.264 265.293 395.174 261.804C394.084 258.315 393.538 254.499 393.538 250.355C393.538 246.212 393.866 242.178 394.52 238.253C395.392 234.328 396.264 231.057 397.137 228.44C397.355 227.786 397.573 227.241 397.791 226.805C398.009 226.15 398.227 225.496 398.445 224.842C396.482 227.677 394.738 230.185 393.211 232.365C391.685 234.546 390.595 236.072 389.94 236.945C389.722 237.381 389.286 237.599 388.632 237.599C387.978 237.599 387.433 237.381 386.997 236.945C386.778 236.29 386.997 235.636 387.651 234.982C388.523 233.674 389.94 231.493 391.903 228.44C394.084 225.169 396.482 221.68 399.099 217.973C401.716 214.048 403.897 210.777 405.641 208.16C408.912 203.363 413.382 200.964 419.052 200.964H420.033C420.687 200.964 421.015 201.182 421.015 201.618C421.015 201.836 420.469 202.817 419.379 204.562C417.198 207.615 414.582 211.976 411.529 217.646C408.694 223.315 406.186 229.421 404.006 235.963C402.043 242.287 401.062 248.175 401.062 253.626C401.062 257.988 402.043 261.695 404.006 264.748C404.878 266.056 406.295 266.71 408.258 266.71C410.22 266.71 412.401 265.947 414.8 264.421C417.417 262.894 419.706 261.259 421.669 259.514C426.466 255.589 431.155 250.465 435.734 244.141C440.531 237.817 444.457 231.057 447.509 223.861C450.78 216.665 452.416 209.795 452.416 203.254C452.416 199.765 451.871 196.821 450.78 194.422C449.69 192.023 447.946 190.606 445.547 190.17C444.675 190.17 444.238 189.734 444.238 188.861C444.238 187.553 445.111 186.899 446.855 186.899C451.217 186.899 454.597 188.752 456.995 192.459C459.612 195.948 460.92 200.528 460.92 206.197C460.92 209.25 460.484 212.521 459.612 216.01C458.74 219.499 457.431 222.988 455.687 226.477C452.852 231.929 449.145 237.926 444.566 244.468C439.986 250.792 434.753 256.461 428.865 261.477C422.977 266.274 416.653 269.218 409.893 270.308C409.239 270.526 408.258 270.635 406.949 270.635ZM522.484 271.29C518.558 271.29 515.615 269.981 513.652 267.365C511.907 264.748 511.035 261.368 511.035 257.225C511.035 254.39 511.362 251.555 512.016 248.72C512.235 248.284 512.562 247.303 512.998 245.776C513.434 244.032 514.088 242.069 514.96 239.888C511.907 244.686 507.982 250.028 503.185 255.916C498.606 261.586 493.481 265.838 487.811 268.673C484.54 270.199 481.269 270.963 477.998 270.963C473.637 270.963 470.148 269.327 467.531 266.056C464.915 262.567 463.606 257.77 463.606 251.664C463.606 246.648 464.696 241.306 466.877 235.636C469.058 229.748 472.22 223.752 476.363 217.646C478.98 213.721 482.36 209.905 486.503 206.197C490.646 202.49 495.116 199.437 499.914 197.039C504.711 194.64 509.291 193.441 513.652 193.441C518.013 193.441 521.72 194.64 524.773 197.039C527.826 199.437 529.462 203.035 529.68 207.833C529.68 208.487 529.353 209.032 528.698 209.468C528.262 209.686 527.826 209.359 527.39 208.487C524.773 202.599 520.521 199.655 514.633 199.655C510.708 199.655 506.565 201.509 502.204 205.216C497.842 208.705 493.59 213.175 489.447 218.627C485.304 224.079 481.706 229.53 478.653 234.982C476.036 239.779 474.073 244.141 472.765 248.066C471.675 251.991 471.129 255.371 471.129 258.206C471.129 264.094 473.419 267.037 477.998 267.037C480.397 267.037 483.014 266.274 485.849 264.748C488.466 263.221 491.627 260.495 495.335 256.57C499.26 252.645 503.076 248.284 506.783 243.486C510.708 238.689 514.197 234.001 517.25 229.421C520.521 224.842 522.92 221.244 524.446 218.627C527.717 213.175 531.097 208.378 534.586 204.235C538.075 200.092 541.564 198.02 545.053 198.02C546.798 198.02 547.67 198.456 547.67 199.328C547.67 200.201 547.234 201.073 546.362 201.945C542 207.179 537.857 213.394 533.932 220.59C530.225 227.568 527.063 234.219 524.446 240.543C522.047 246.866 520.63 251.664 520.194 254.935C519.54 261.913 521.611 265.402 526.409 265.402C527.063 265.402 527.717 265.402 528.371 265.402C529.026 265.184 529.789 264.966 530.661 264.748C535.24 263.221 539.711 260.386 544.072 256.243C548.433 252.1 552.467 247.63 556.175 242.832C559.882 237.817 562.935 233.455 565.333 229.748C565.987 228.876 566.533 228.44 566.969 228.44C567.623 228.44 567.95 228.985 567.95 230.075C567.95 230.73 567.623 231.602 566.969 232.692C565.442 234.873 564.025 237.054 562.716 239.234C561.408 241.197 560.1 243.05 558.791 244.795C558.355 245.667 557.81 246.43 557.156 247.085C556.502 247.739 555.847 248.502 555.193 249.374C552.358 252.863 548.651 256.679 544.072 260.823C539.711 264.748 535.349 267.583 530.988 269.327C527.717 270.635 524.882 271.29 522.484 271.29ZM567.301 271.29C563.376 271.29 560.541 269.981 558.796 267.365C557.052 264.748 556.18 261.477 556.18 257.552C556.18 254.499 556.507 251.555 557.161 248.72C557.815 245.667 559.887 240.652 563.376 233.674C566.865 226.477 570.681 218.954 574.824 211.104C572.644 211.976 570.245 212.957 567.628 214.048C565.229 214.92 563.485 215.901 562.395 216.992C561.522 217.428 560.977 217.646 560.759 217.646C560.105 217.646 559.778 217.21 559.778 216.337C559.778 214.375 560.977 212.521 563.376 210.777C565.775 209.032 568.064 207.833 570.245 207.179C572.644 206.525 575.369 205.761 578.422 204.889C580.821 200.528 583.329 196.057 585.945 191.478C588.78 186.681 591.288 182.537 593.469 179.048C594.995 176.868 597.176 174.142 600.011 170.871C602.845 167.382 606.007 164.547 609.496 162.366C611.459 161.058 614.076 160.404 617.347 160.404C619.745 160.404 621.054 160.84 621.272 161.712C618.001 162.585 614.621 164.765 611.132 168.254C607.861 171.743 604.699 175.777 601.646 180.357C598.593 184.936 595.976 189.297 593.796 193.441C591.615 197.366 589.98 200.419 588.889 202.599C593.469 201.945 597.285 201.618 600.338 201.618C602.082 201.618 603.609 201.727 604.917 201.945C606.225 201.945 607.316 202.054 608.188 202.272C609.933 202.49 610.805 203.035 610.805 203.908C610.805 204.78 609.715 205.216 607.534 205.216C605.789 205.216 603.718 205.216 601.319 205.216C599.138 205.216 596.74 205.434 594.123 205.87C592.16 206.088 590.089 206.743 587.908 207.833C585.945 208.923 584.637 210.123 583.983 211.431C579.185 220.154 574.933 228.549 571.226 236.617C567.519 244.686 565.447 250.792 565.011 254.935C564.357 261.913 566.429 265.402 571.226 265.402C576.024 265.402 580.821 263.33 585.618 259.187C590.634 254.826 595.322 249.81 599.684 244.141C604.045 238.471 607.534 233.674 610.151 229.748C611.023 228.876 611.568 228.44 611.786 228.44C612.44 228.44 612.767 228.985 612.767 230.075C612.767 230.948 612.44 231.929 611.786 233.019C608.079 238.689 603.827 244.468 599.029 250.355C594.232 256.243 589.107 261.259 583.656 265.402C578.422 269.327 572.971 271.29 567.301 271.29ZM631.32 271.617C622.379 271.617 615.837 269.654 611.694 265.729C607.551 261.586 605.479 256.134 605.479 249.374C605.479 247.63 605.588 245.885 605.806 244.141C606.243 242.178 606.679 240.215 607.115 238.253C608.205 234.328 609.95 229.748 612.348 224.515C614.965 219.281 618.127 214.157 621.834 209.141C625.541 204.126 629.575 199.983 633.937 196.712C638.298 193.441 642.877 191.805 647.675 191.805C651.6 191.805 654.544 193.223 656.506 196.057C658.687 198.892 659.777 202.272 659.777 206.197C659.777 210.341 658.469 214.593 655.852 218.954C653.453 223.097 650.183 226.477 646.039 229.094C641.242 232.365 635.79 234.001 629.684 234.001C625.759 234.001 622.161 233.237 618.89 231.711C615.619 238.253 613.984 244.686 613.984 251.01C613.984 255.589 615.292 259.514 617.909 262.785C620.526 266.056 624.887 267.692 630.993 267.692C638.407 267.692 644.949 265.947 650.619 262.458C656.288 258.751 661.522 253.954 666.319 248.066C671.335 242.178 676.132 235.854 680.712 229.094C681.366 228.44 681.802 228.113 682.02 228.113C682.674 228.113 683.001 228.658 683.001 229.748C683.001 230.839 682.674 231.929 682.02 233.019C678.095 239.125 673.624 245.122 668.609 251.01C663.812 256.897 658.36 261.804 652.254 265.729C646.148 269.654 639.17 271.617 631.32 271.617ZM626.413 229.421C632.083 229.421 637.426 227.459 642.441 223.534C644.84 221.789 646.912 219.717 648.656 217.319C650.401 214.92 651.6 212.521 652.254 210.123C652.908 207.724 653.235 205.652 653.235 203.908C653.235 198.892 651.382 196.385 647.675 196.385C645.276 196.385 642.55 197.802 639.497 200.637C636.881 203.035 634.155 206.088 631.32 209.795C628.703 213.503 626.413 217.101 624.451 220.59C622.488 223.861 621.18 226.259 620.526 227.786C622.052 228.876 624.015 229.421 626.413 229.421Z" fill="white"/>
<path d="M263.851 376.742L251.697 336.037H258.501L267.514 366.391L276.179 336.037H282.866L291.472 366.1L300.486 336.037H307.347L295.019 376.742H287.867L279.493 346.736L271.003 376.742H263.851ZM325.468 376.742V336.037H332.213V376.742H325.468ZM363.104 376.742V342.2H350.602V336.037H382.352V342.2H369.85V376.742H363.104ZM400.743 376.742V336.037H407.488V352.784H427.957V336.037H434.703V376.742H427.957V358.948H407.488V376.742H400.743ZM483.969 376.742V336.037H498.332C501.123 336.037 503.585 336.579 505.717 337.665C507.849 338.75 509.516 340.262 510.718 342.2C511.92 344.1 512.521 346.31 512.521 348.83C512.521 351.505 511.784 353.869 510.311 355.924C508.838 357.94 506.899 359.432 504.496 360.402L514.149 376.742H506.531L497.808 361.681C497.576 361.72 497.324 361.739 497.053 361.739C496.82 361.739 496.568 361.739 496.297 361.739H490.714V376.742H483.969ZM490.714 355.517H498.623C499.941 355.517 501.104 355.226 502.112 354.645C503.158 354.063 503.992 353.268 504.612 352.261C505.271 351.253 505.601 350.109 505.601 348.83C505.601 346.891 504.903 345.302 503.507 344.061C502.112 342.821 500.309 342.2 498.099 342.2H490.714V355.517ZM549.313 377.556C546.096 377.556 543.266 376.916 540.823 375.637C538.42 374.319 536.54 372.478 535.183 370.113C533.865 367.748 533.206 364.995 533.206 361.855V336.037H539.951V361.855C539.951 363.755 540.339 365.422 541.114 366.856C541.928 368.252 543.053 369.357 544.487 370.171C545.921 370.946 547.569 371.334 549.43 371.334C551.329 371.334 552.996 370.946 554.431 370.171C555.904 369.357 557.028 368.252 557.803 366.856C558.579 365.422 558.966 363.755 558.966 361.855V336.037H565.712V361.855C565.712 364.995 565.034 367.748 563.677 370.113C562.359 372.478 560.459 374.319 557.978 375.637C555.536 376.916 552.647 377.556 549.313 377.556ZM587.581 376.742V336.037H601.944C604.735 336.037 607.197 336.599 609.329 337.723C611.462 338.847 613.129 340.417 614.33 342.433C615.532 344.41 616.133 346.717 616.133 349.353C616.133 351.912 615.571 354.199 614.447 356.215C613.322 358.231 611.752 359.82 609.736 360.983C607.759 362.107 605.453 362.669 602.817 362.669H594.327V376.742H587.581ZM594.327 356.447H602.7C604.639 356.447 606.228 355.788 607.469 354.47C608.709 353.152 609.329 351.446 609.329 349.353C609.329 347.221 608.632 345.496 607.236 344.178C605.84 342.859 604.038 342.2 601.828 342.2H594.327V356.447ZM630.598 376.742L646.822 336.037H653.974L670.257 376.742H663.104L659.092 366.74H641.705L637.75 376.742H630.598ZM643.973 360.75H656.824L650.427 344.468L643.973 360.75ZM688.354 376.742V336.037H695.1V370.578H713.533V376.742H688.354ZM731.983 376.742V336.037H738.728V376.742H731.983Z" fill="white"/>
<path d="M711.581 132.387L714.26 161.801L735.219 140.991L718.364 165.245L747.796 162.776L719.295 170.522L743.428 187.548L716.616 175.162L724.158 203.718L711.581 176.994L699.003 203.718L706.546 175.162L679.733 187.548L703.867 170.522L675.365 162.776L704.797 165.245L687.943 140.991L708.902 161.801L711.581 132.387Z" fill="white"/>
<line x1="106.645" y1="358.57" x2="216.968" y2="358.57" stroke="white" stroke-width="3.63441"/>
</svg>
