<svg width="952" height="448" viewBox="0 0 952 448" fill="none" xmlns="http://www.w3.org/2000/svg">
<path d="M224 0C347.712 5.47636e-06 448 100.288 448 224C448 347.712 347.712 448 224 448C100.288 448 5.47768e-06 347.712 0 224C0 100.288 100.288 0 224 0Z" fill="#FFF3DE" fill-opacity="0.4"/>
<path d="M224 0C347.712 5.47636e-06 448 100.288 448 224C448 347.712 347.712 448 224 448C100.288 448 5.47768e-06 347.712 0 224C0 100.288 100.288 0 224 0Z" stroke="#FFF9DE"/>
<path d="M223 420C116.409 420 30 334.039 30 228" stroke="#1C1C1C" stroke-width="5" stroke-miterlimit="8.83367" stroke-linecap="round" stroke-dasharray="6 12 18 24"/>
<path d="M169.047 72.8867C213.577 59.704 215.222 95 215.222 114.083V342.246C215.222 377.231 196.668 385.977 187.391 385.977C156.523 386.991 145.855 354.288 144.379 337.809C96.3067 335.781 94.8308 293.444 100.102 272.529C51.0178 230.953 79.6502 193.517 100.102 179.997C83.4032 138.927 117.18 118.942 136.156 114.083C137.674 91.2665 158.716 77.112 169.047 72.8867Z" fill="white" stroke="#1C1C1C" stroke-width="3"/>
<path d="M280.953 74.8776C236.423 61.7366 234.778 96 234.778 115.943V343.384C234.778 378.258 253.332 386.977 262.609 386.977C293.477 387.988 304.145 355.388 305.621 338.962C353.693 336.94 355.169 294.737 349.898 273.888C398.982 232.444 370.35 195.126 349.898 181.648C366.597 140.709 332.82 120.787 313.844 115.943C312.326 93.1992 291.284 79.0895 280.953 74.8776Z" fill="white" stroke="#BF6C08" stroke-width="3"/>
<path d="M307.992 160.961L256.432 181.259L270.265 121L307.992 160.961ZM307.992 160.961L287.242 203.46L330 225.66M307.992 160.961L330 225.66M330 225.66L323.083 285.919M330 225.66L287.242 246.592V264.353M323.083 285.919L287.242 264.353M323.083 285.919L277.811 317L247 295.434L287.242 264.353" stroke="#BF6C08" stroke-width="2"/>
<path d="M178.565 102C178.354 115.957 185.146 144.252 214 145.774M164.011 121.032C154.942 133.509 124.147 181.935 164.011 199.699M164.011 240.301C144.666 240.301 130.236 243.997 127.311 221.324M127.311 199.699C126.569 208.751 126.6 215.816 127.311 221.324M102 225.075C107.062 222.574 119.211 218.323 127.311 221.324M112.124 265.677C122.46 266.964 147.433 255.28 151.989 240.518M144.395 273.29C145.45 281.961 155.785 297.525 188.689 290.419C177.932 296.129 160.847 313.639 178.565 338M154.52 287.723C150.934 292.798 139.46 305.265 127.311 303.742M164.011 156.559C163.8 161.423 168.441 171.785 188.689 174.323M119.718 167.344C123.514 162.903 133.512 156.686 143.13 167.344" stroke="#1C1C1C" stroke-width="2"/>
<ellipse cx="272" cy="125.5" rx="6" ry="6.5" fill="#BF6C08"/>
<circle cx="306" cy="162" r="6" fill="#BF6C08"/>
<circle cx="331.5" cy="227.5" r="6.5" fill="#BF6C08"/>
<circle cx="324" cy="287" r="6" fill="#BF6C08"/>
<circle cx="279.5" cy="318.5" r="6.5" fill="#BF6C08"/>
<path d="M419.34 228.961L401.219 251.432L429.74 255.89L419.34 228.961ZM225.166 419.972L225.166 422.472C309.635 422.472 395.67 366.797 418.32 251.665L415.867 251.183L413.414 250.7C391.236 363.43 307.304 417.472 225.166 417.472L225.166 419.972Z" fill="#BF6C08"/>
<circle cx="225.5" cy="230.5" r="74.5" fill="#1C1C1C"/>
<circle cx="225.5" cy="230.5" r="74.5" stroke="#BF6C08"/>
<path d="M225 265.341C218.895 262.805 206.811 254.054 207.316 239.341C207.948 220.951 221.842 212.073 225 207V181C218.577 190.043 190.316 205.87 189.031 238.652C188.004 264.878 212.583 280.478 225 285V265.341Z" fill="#FFFDFA" stroke="white"/>
<circle cx="225" cy="230" r="69.5" stroke="white" stroke-width="3"/>
<ellipse cx="225" cy="237.5" rx="6" ry="6.5" fill="white"/>
<path d="M226 265.341C232.105 262.805 244.189 254.054 243.684 239.341C243.052 220.951 229.158 212.073 226 207V181C232.423 190.043 260.684 205.87 261.969 238.652C262.996 264.878 238.417 280.478 226 285V265.341Z" fill="#FFFDFA" stroke="white"/>
<path d="M560.173 281.26C554.653 281.26 549.433 280.72 544.513 279.64C539.713 278.68 535.813 276.76 532.813 273.88C529.813 271 528.313 266.92 528.313 261.64C528.313 260.2 528.433 258.7 528.673 257.14C528.913 255.46 529.273 253.72 529.753 251.92C530.953 247.72 532.693 243.34 534.973 238.78C537.253 234.1 539.893 229.36 542.893 224.56C548.173 215.8 554.833 207.04 562.873 198.28C570.913 189.4 579.013 181.18 587.173 173.62C580.813 173.74 574.333 174.16 567.733 174.88C561.253 175.48 555.313 176.2 549.913 177.04C544.513 177.88 540.193 178.84 536.953 179.92C532.873 181.12 529.513 182.5 526.873 184.06C524.353 185.62 523.093 187.24 523.093 188.92C523.093 191.08 525.613 193.3 530.653 195.58C530.893 195.7 531.013 195.94 531.013 196.3C531.013 197.38 530.473 197.8 529.393 197.56C526.033 196.12 523.513 194.56 521.833 192.88C520.273 191.08 519.493 189.28 519.493 187.48C519.493 185.32 520.633 183.22 522.913 181.18C525.313 179.14 528.673 177.46 532.993 176.14C535.033 175.54 538.393 174.94 543.073 174.34C547.753 173.62 553.273 172.96 559.633 172.36C565.993 171.76 572.713 171.28 579.793 170.92C586.993 170.56 594.013 170.38 600.853 170.38C607.813 170.38 614.293 170.62 620.293 171.1C626.293 171.58 631.273 172.42 635.233 173.62C639.193 174.7 641.593 176.26 642.433 178.3C642.793 179.02 642.973 179.86 642.973 180.82C642.973 182.86 642.253 185.08 640.813 187.48C639.373 189.76 637.693 191.92 635.773 193.96C635.173 194.56 634.573 194.86 633.973 194.86C633.253 194.86 632.893 194.5 632.893 193.78C632.893 193.3 633.133 192.82 633.613 192.34C636.853 188.98 638.173 185.74 637.573 182.62C637.333 180.94 636.073 179.56 633.793 178.48C631.633 177.28 628.873 176.32 625.513 175.6C622.273 174.88 618.793 174.34 615.073 173.98C611.353 173.62 607.873 173.44 604.633 173.44C599.833 173.44 596.353 173.74 594.193 174.34C593.113 174.58 591.313 175.84 588.793 178.12C586.273 180.4 583.393 183.22 580.153 186.58C577.033 189.82 573.853 193.24 570.613 196.84C567.493 200.44 564.613 203.74 561.973 206.74C559.333 209.74 557.353 212.02 556.033 213.58C561.673 212.98 567.133 212.5 572.413 212.14C577.813 211.66 583.453 211.42 589.333 211.42C592.213 211.42 595.153 211.48 598.153 211.6C601.273 211.72 604.513 211.96 607.873 212.32C609.793 212.44 610.753 212.86 610.753 213.58C610.753 214.06 610.333 214.48 609.493 214.84C608.653 215.2 607.933 215.38 607.333 215.38C605.773 215.38 604.093 215.38 602.293 215.38C600.613 215.26 598.813 215.2 596.893 215.2C591.853 215.2 586.573 215.32 581.053 215.56C575.533 215.8 570.313 216.16 565.393 216.64C560.473 217.12 556.273 217.66 552.793 218.26C549.073 223.42 545.593 229.06 542.353 235.18C539.233 241.18 537.013 247 535.693 252.64C534.973 255.52 534.613 258.16 534.613 260.56C534.613 265 535.633 268.48 537.673 271C539.833 273.4 542.653 275.08 546.133 276.04C549.613 277 553.393 277.48 557.473 277.48C562.753 277.48 568.933 276.88 576.013 275.68C583.093 274.6 590.233 272.74 597.433 270.1C604.753 267.34 611.173 263.74 616.693 259.3C618.733 257.74 620.533 256 622.093 254.08C623.773 252.16 625.273 250.18 626.593 248.14C626.953 247.66 627.253 247.42 627.493 247.42C627.853 247.42 628.033 247.72 628.033 248.32C628.033 248.92 627.853 249.52 627.493 250.12C626.293 252.04 624.973 254.02 623.533 256.06C622.093 258.1 620.533 259.96 618.853 261.64C613.573 266.8 607.633 270.82 601.033 273.7C594.553 276.58 587.773 278.56 580.693 279.64C573.733 280.72 566.893 281.26 560.173 281.26ZM636.406 272.44C633.526 272.44 631.246 271.54 629.566 269.74C627.886 267.82 626.746 265.42 626.146 262.54C625.546 259.66 625.306 256.72 625.426 253.72C625.786 248.56 626.926 242.68 628.846 236.08C630.766 229.48 633.226 222.76 636.226 215.92C639.346 208.96 642.766 202.42 646.486 196.3C650.326 190.18 654.346 184.9 658.546 180.46C662.746 176.02 666.886 172.96 670.966 171.28C672.286 170.68 673.426 170.32 674.386 170.2C675.346 169.96 676.246 169.84 677.086 169.84C679.966 169.84 681.886 171.22 682.846 173.98C683.326 174.94 683.566 176.14 683.566 177.58C683.566 180.46 682.606 183.82 680.686 187.66C679.006 191.14 676.606 195.1 673.486 199.54C670.366 203.86 666.826 208.3 662.866 212.86C659.026 217.3 655.126 221.62 651.166 225.82C647.206 229.9 643.546 233.56 640.186 236.8C636.826 240.04 634.126 242.5 632.086 244.18C631.366 248.14 631.006 251.86 631.006 255.34C631.006 259.06 631.606 262.3 632.806 265.06C634.126 267.82 636.286 269.2 639.286 269.2C642.166 269.2 644.986 268.06 647.746 265.78C650.506 263.5 653.026 260.8 655.306 257.68C657.706 254.56 659.686 251.8 661.246 249.4C661.726 248.92 662.026 248.68 662.146 248.68C662.506 248.68 662.686 248.98 662.686 249.58C662.686 250.06 662.506 250.6 662.146 251.2C659.986 254.56 657.586 257.86 654.946 261.1C652.306 264.34 649.426 267.04 646.306 269.2C643.186 271.36 639.886 272.44 636.406 272.44ZM632.806 241.12C635.446 238.72 638.866 235.3 643.066 230.86C647.386 226.42 651.826 221.5 656.386 216.1C661.066 210.7 665.326 205.42 669.166 200.26C673.006 194.98 675.826 190.3 677.626 186.22C678.346 184.78 678.946 183.22 679.426 181.54C679.906 179.86 680.146 178.3 680.146 176.86C680.146 174.22 679.186 172.9 677.266 172.9C674.626 172.9 671.086 175 666.646 179.2C661.726 183.76 656.986 189.58 652.426 196.66C647.866 203.62 643.846 211 640.366 218.8C637.006 226.48 634.486 233.92 632.806 241.12ZM672.993 272.44C668.073 272.44 664.473 271.36 662.193 269.2C659.913 266.92 658.773 263.92 658.773 260.2C658.773 259.24 658.833 258.28 658.953 257.32C659.193 256.24 659.433 255.16 659.673 254.08C660.273 251.92 661.233 249.4 662.553 246.52C663.993 243.64 665.733 240.82 667.773 238.06C669.813 235.3 672.033 233.02 674.433 231.22C676.833 229.42 679.353 228.52 681.993 228.52C684.153 228.52 685.773 229.3 686.853 230.86C688.053 232.42 688.653 234.28 688.653 236.44C688.653 238.72 687.933 241.06 686.493 243.46C685.173 245.74 683.373 247.6 681.093 249.04C678.453 250.84 675.453 251.74 672.093 251.74C669.933 251.74 667.953 251.32 666.153 250.48C664.353 254.08 663.453 257.62 663.453 261.1C663.453 263.62 664.173 265.78 665.613 267.58C667.053 269.38 669.453 270.28 672.813 270.28C676.893 270.28 680.493 269.32 683.613 267.4C686.733 265.36 689.613 262.72 692.253 259.48C695.013 256.24 697.653 252.76 700.173 249.04C700.533 248.68 700.773 248.5 700.893 248.5C701.253 248.5 701.433 248.8 701.433 249.4C701.433 250 701.253 250.6 700.893 251.2C698.733 254.56 696.273 257.86 693.513 261.1C690.873 264.34 687.873 267.04 684.513 269.2C681.153 271.36 677.313 272.44 672.993 272.44ZM670.293 249.22C673.413 249.22 676.353 248.14 679.113 245.98C680.433 245.02 681.573 243.88 682.533 242.56C683.493 241.24 684.153 239.92 684.513 238.6C684.873 237.28 685.053 236.14 685.053 235.18C685.053 232.42 684.033 231.04 681.993 231.04C680.673 231.04 679.173 231.82 677.493 233.38C676.053 234.7 674.553 236.38 672.993 238.42C671.553 240.46 670.293 242.44 669.213 244.36C668.133 246.16 667.413 247.48 667.053 248.32C667.893 248.92 668.973 249.22 670.293 249.22ZM708.605 271.9C707.285 271.9 706.145 271.6 705.185 271C703.745 270.28 702.725 268.96 702.125 267.04C701.525 265.12 701.225 263.02 701.225 260.74C701.225 258.46 701.405 256.24 701.765 254.08C702.245 251.92 702.725 250.12 703.205 248.68C703.325 248.32 703.445 248.02 703.565 247.78C703.685 247.42 703.805 247.06 703.925 246.7C702.845 248.26 701.885 249.64 701.045 250.84C700.205 252.04 699.605 252.88 699.245 253.36C699.125 253.6 698.885 253.72 698.525 253.72C698.165 253.72 697.865 253.6 697.625 253.36C697.505 253 697.625 252.64 697.985 252.28C698.465 251.56 699.245 250.36 700.325 248.68C701.525 246.88 702.845 244.96 704.285 242.92C705.725 240.76 706.925 238.96 707.885 237.52C709.685 234.88 712.145 233.56 715.265 233.56H715.805C716.165 233.56 716.345 233.68 716.345 233.92C716.345 234.04 716.045 234.58 715.445 235.54C714.245 237.22 712.805 239.62 711.125 242.74C709.565 245.86 708.185 249.22 706.985 252.82C705.905 256.3 705.365 259.54 705.365 262.54C705.365 264.94 705.905 266.98 706.985 268.66C707.465 269.38 708.245 269.74 709.325 269.74C710.405 269.74 711.605 269.32 712.925 268.48C714.365 267.64 715.625 266.74 716.705 265.78C719.345 263.62 721.925 260.8 724.445 257.32C727.085 253.84 729.245 250.12 730.925 246.16C732.725 242.2 733.625 238.42 733.625 234.82C733.625 232.9 733.325 231.28 732.725 229.96C732.125 228.64 731.165 227.86 729.845 227.62C729.365 227.62 729.125 227.38 729.125 226.9C729.125 226.18 729.605 225.82 730.565 225.82C732.965 225.82 734.825 226.84 736.145 228.88C737.585 230.8 738.305 233.32 738.305 236.44C738.305 238.12 738.065 239.92 737.585 241.84C737.105 243.76 736.385 245.68 735.425 247.6C733.865 250.6 731.825 253.9 729.305 257.5C726.785 260.98 723.905 264.1 720.665 266.86C717.425 269.5 713.945 271.12 710.225 271.72C709.865 271.84 709.325 271.9 708.605 271.9ZM772.183 272.26C770.023 272.26 768.403 271.54 767.323 270.1C766.363 268.66 765.883 266.8 765.883 264.52C765.883 262.96 766.063 261.4 766.423 259.84C766.543 259.6 766.723 259.06 766.963 258.22C767.203 257.26 767.563 256.18 768.043 254.98C766.363 257.62 764.203 260.56 761.563 263.8C759.043 266.92 756.223 269.26 753.103 270.82C751.303 271.66 749.503 272.08 747.703 272.08C745.303 272.08 743.383 271.18 741.943 269.38C740.503 267.46 739.783 264.82 739.783 261.46C739.783 258.7 740.383 255.76 741.583 252.64C742.783 249.4 744.523 246.1 746.803 242.74C748.243 240.58 750.103 238.48 752.383 236.44C754.663 234.4 757.123 232.72 759.763 231.4C762.403 230.08 764.923 229.42 767.323 229.42C769.723 229.42 771.763 230.08 773.443 231.4C775.123 232.72 776.023 234.7 776.143 237.34C776.143 237.7 775.963 238 775.603 238.24C775.363 238.36 775.123 238.18 774.883 237.7C773.443 234.46 771.103 232.84 767.863 232.84C765.703 232.84 763.423 233.86 761.023 235.9C758.623 237.82 756.283 240.28 754.003 243.28C751.723 246.28 749.743 249.28 748.063 252.28C746.623 254.92 745.543 257.32 744.823 259.48C744.223 261.64 743.923 263.5 743.923 265.06C743.923 268.3 745.183 269.92 747.703 269.92C749.023 269.92 750.463 269.5 752.023 268.66C753.463 267.82 755.203 266.32 757.243 264.16C759.403 262 761.503 259.6 763.543 256.96C765.703 254.32 767.623 251.74 769.303 249.22C771.103 246.7 772.423 244.72 773.263 243.28C775.063 240.28 776.923 237.64 778.843 235.36C780.763 233.08 782.683 231.94 784.603 231.94C785.563 231.94 786.043 232.18 786.043 232.66C786.043 233.14 785.803 233.62 785.323 234.1C782.923 236.98 780.643 240.4 778.483 244.36C776.443 248.2 774.703 251.86 773.263 255.34C771.943 258.82 771.163 261.46 770.923 263.26C770.563 267.1 771.703 269.02 774.343 269.02C774.703 269.02 775.063 269.02 775.423 269.02C775.783 268.9 776.203 268.78 776.683 268.66C779.203 267.82 781.663 266.26 784.063 263.98C786.463 261.7 788.683 259.24 790.723 256.6C792.763 253.84 794.443 251.44 795.763 249.4C796.123 248.92 796.423 248.68 796.663 248.68C797.023 248.68 797.203 248.98 797.203 249.58C797.203 249.94 797.023 250.42 796.663 251.02C795.823 252.22 795.043 253.42 794.323 254.62C793.603 255.7 792.883 256.72 792.163 257.68C791.923 258.16 791.623 258.58 791.263 258.94C790.903 259.3 790.543 259.72 790.183 260.2C788.623 262.12 786.583 264.22 784.063 266.5C781.663 268.66 779.263 270.22 776.863 271.18C775.063 271.9 773.503 272.26 772.183 272.26ZM796.846 272.26C794.686 272.26 793.126 271.54 792.166 270.1C791.206 268.66 790.726 266.86 790.726 264.7C790.726 263.02 790.906 261.4 791.266 259.84C791.626 258.16 792.766 255.4 794.686 251.56C796.606 247.6 798.706 243.46 800.986 239.14C799.786 239.62 798.466 240.16 797.026 240.76C795.706 241.24 794.746 241.78 794.146 242.38C793.666 242.62 793.366 242.74 793.246 242.74C792.886 242.74 792.706 242.5 792.706 242.02C792.706 240.94 793.366 239.92 794.686 238.96C796.006 238 797.266 237.34 798.466 236.98C799.786 236.62 801.286 236.2 802.966 235.72C804.286 233.32 805.666 230.86 807.106 228.34C808.666 225.7 810.046 223.42 811.246 221.5C812.086 220.3 813.286 218.8 814.846 217C816.406 215.08 818.146 213.52 820.066 212.32C821.146 211.6 822.586 211.24 824.386 211.24C825.706 211.24 826.426 211.48 826.546 211.96C824.746 212.44 822.886 213.64 820.966 215.56C819.166 217.48 817.426 219.7 815.746 222.22C814.066 224.74 812.626 227.14 811.426 229.42C810.226 231.58 809.326 233.26 808.726 234.46C811.246 234.1 813.346 233.92 815.026 233.92C815.986 233.92 816.826 233.98 817.546 234.1C818.266 234.1 818.866 234.16 819.346 234.28C820.306 234.4 820.786 234.7 820.786 235.18C820.786 235.66 820.186 235.9 818.986 235.9C818.026 235.9 816.886 235.9 815.566 235.9C814.366 235.9 813.046 236.02 811.606 236.26C810.526 236.38 809.386 236.74 808.186 237.34C807.106 237.94 806.386 238.6 806.026 239.32C803.386 244.12 801.046 248.74 799.006 253.18C796.966 257.62 795.826 260.98 795.586 263.26C795.226 267.1 796.366 269.02 799.006 269.02C801.646 269.02 804.286 267.88 806.926 265.6C809.686 263.2 812.266 260.44 814.666 257.32C817.066 254.2 818.986 251.56 820.426 249.4C820.906 248.92 821.206 248.68 821.326 248.68C821.686 248.68 821.866 248.98 821.866 249.58C821.866 250.06 821.686 250.6 821.326 251.2C819.286 254.32 816.946 257.5 814.306 260.74C811.666 263.98 808.846 266.74 805.846 269.02C802.966 271.18 799.966 272.26 796.846 272.26ZM832.075 272.44C827.155 272.44 823.555 271.36 821.275 269.2C818.995 266.92 817.855 263.92 817.855 260.2C817.855 259.24 817.915 258.28 818.035 257.32C818.275 256.24 818.515 255.16 818.755 254.08C819.355 251.92 820.315 249.4 821.635 246.52C823.075 243.64 824.815 240.82 826.855 238.06C828.895 235.3 831.115 233.02 833.515 231.22C835.915 229.42 838.435 228.52 841.075 228.52C843.235 228.52 844.855 229.3 845.935 230.86C847.135 232.42 847.735 234.28 847.735 236.44C847.735 238.72 847.015 241.06 845.575 243.46C844.255 245.74 842.455 247.6 840.175 249.04C837.535 250.84 834.535 251.74 831.175 251.74C829.015 251.74 827.035 251.32 825.235 250.48C823.435 254.08 822.535 257.62 822.535 261.1C822.535 263.62 823.255 265.78 824.695 267.58C826.135 269.38 828.535 270.28 831.895 270.28C835.975 270.28 839.575 269.32 842.695 267.4C845.815 265.36 848.695 262.72 851.335 259.48C854.095 256.24 856.735 252.76 859.255 249.04C859.615 248.68 859.855 248.5 859.975 248.5C860.335 248.5 860.515 248.8 860.515 249.4C860.515 250 860.335 250.6 859.975 251.2C857.815 254.56 855.355 257.86 852.595 261.1C849.955 264.34 846.955 267.04 843.595 269.2C840.235 271.36 836.395 272.44 832.075 272.44ZM829.375 249.22C832.495 249.22 835.435 248.14 838.195 245.98C839.515 245.02 840.655 243.88 841.615 242.56C842.575 241.24 843.235 239.92 843.595 238.6C843.955 237.28 844.135 236.14 844.135 235.18C844.135 232.42 843.115 231.04 841.075 231.04C839.755 231.04 838.255 231.82 836.575 233.38C835.135 234.7 833.635 236.38 832.075 238.42C830.635 240.46 829.375 242.44 828.295 244.36C827.215 246.16 826.495 247.48 826.135 248.32C826.975 248.92 828.055 249.22 829.375 249.22Z" fill="#1C1C1C"/>
<path d="M628.995 329L622.307 306.6H626.051L631.011 323.304L635.779 306.6H639.459L644.195 323.144L649.155 306.6H652.931L646.147 329H642.211L637.603 312.488L632.931 329H628.995ZM662.902 329V306.6H666.614V329H662.902ZM683.614 329V309.992H676.734V306.6H694.206V309.992H687.326V329H683.614ZM704.326 329V306.6H708.038V315.816H719.302V306.6H723.014V329H719.302V319.208H708.038V329H704.326ZM750.125 329V306.6H758.029C759.565 306.6 760.919 306.899 762.093 307.496C763.266 308.093 764.183 308.925 764.845 309.992C765.506 311.037 765.837 312.253 765.837 313.64C765.837 315.112 765.431 316.413 764.621 317.544C763.81 318.653 762.743 319.475 761.421 320.008L766.733 329H762.541L757.741 320.712C757.613 320.733 757.474 320.744 757.325 320.744C757.197 320.744 757.058 320.744 756.909 320.744H753.837V329H750.125ZM753.837 317.32H758.189C758.914 317.32 759.554 317.16 760.109 316.84C760.685 316.52 761.143 316.083 761.485 315.528C761.847 314.973 762.029 314.344 762.029 313.64C762.029 312.573 761.645 311.699 760.877 311.016C760.109 310.333 759.117 309.992 757.901 309.992H753.837V317.32ZM786.084 329.448C784.313 329.448 782.756 329.096 781.412 328.392C780.089 327.667 779.054 326.653 778.308 325.352C777.582 324.051 777.22 322.536 777.22 320.808V306.6H780.932V320.808C780.932 321.853 781.145 322.771 781.572 323.56C782.02 324.328 782.638 324.936 783.428 325.384C784.217 325.811 785.124 326.024 786.148 326.024C787.193 326.024 788.11 325.811 788.9 325.384C789.71 324.936 790.329 324.328 790.756 323.56C791.182 322.771 791.396 321.853 791.396 320.808V306.6H795.108V320.808C795.108 322.536 794.734 324.051 793.988 325.352C793.262 326.653 792.217 327.667 790.852 328.392C789.508 329.096 787.918 329.448 786.084 329.448ZM807.142 329V306.6H815.046C816.582 306.6 817.937 306.909 819.11 307.528C820.284 308.147 821.201 309.011 821.862 310.12C822.524 311.208 822.854 312.477 822.854 313.928C822.854 315.336 822.545 316.595 821.926 317.704C821.308 318.813 820.444 319.688 819.334 320.328C818.246 320.947 816.977 321.256 815.526 321.256H810.854V329H807.142ZM810.854 317.832H815.462C816.529 317.832 817.404 317.469 818.086 316.744C818.769 316.019 819.11 315.08 819.11 313.928C819.11 312.755 818.726 311.805 817.958 311.08C817.19 310.355 816.198 309.992 814.982 309.992H810.854V317.832ZM830.814 329L839.742 306.6H843.678L852.638 329H848.702L846.494 323.496H836.926L834.75 329H830.814ZM838.174 320.2H845.246L841.726 311.24L838.174 320.2ZM862.597 329V306.6H866.309V325.608H876.453V329H862.597ZM886.606 329V306.6H890.318V329H886.606Z" fill="#BF6C08"/>
<path d="M874 196L875.457 211.997L886.856 200.679L877.689 213.87L893.696 212.527L878.195 216.74L891.321 226L876.738 219.263L880.84 234.794L874 220.26L867.16 234.794L871.262 219.263L856.679 226L869.805 216.74L854.304 212.527L870.311 213.87L861.144 200.679L872.543 211.997L874 196Z" fill="#BF6C08"/>
<line x1="545" y1="319" x2="605" y2="319" stroke="#BF6C08" stroke-width="2"/>
</svg>
