<svg width="1238" height="448" viewBox="0 0 1238 448" fill="none" xmlns="http://www.w3.org/2000/svg">
<path d="M224 0C347.712 5.47636e-06 448 100.288 448 224C448 347.712 347.712 448 224 448C100.288 448 5.47768e-06 347.712 0 224C0 100.288 100.288 0 224 0Z" fill="#FFF3DE" fill-opacity="0.4"/>
<path d="M224 0C347.712 5.47636e-06 448 100.288 448 224C448 347.712 347.712 448 224 448C100.288 448 5.47768e-06 347.712 0 224C0 100.288 100.288 0 224 0Z" stroke="#FFF9DE"/>
<path d="M223 420C116.409 420 30 334.039 30 228" stroke="#1C1C1C" stroke-width="6" stroke-miterlimit="8.83367" stroke-linecap="round" stroke-dasharray="6 12 18 24"/>
<path d="M169.047 72.8867C213.577 59.704 215.222 95 215.222 114.083V342.246C215.222 377.231 196.668 385.977 187.391 385.977C156.523 386.991 145.855 354.288 144.379 337.809C96.3067 335.781 94.8308 293.444 100.102 272.529C51.0178 230.953 79.6502 193.517 100.102 179.997C83.4032 138.927 117.18 118.942 136.156 114.083C137.674 91.2665 158.716 77.112 169.047 72.8867Z" fill="white" stroke="#1C1C1C" stroke-width="5"/>
<path d="M280.953 74.8776C236.423 61.7366 234.778 96 234.778 115.943V343.384C234.778 378.258 253.332 386.977 262.609 386.977C293.477 387.988 304.145 355.388 305.621 338.962C353.693 336.94 355.169 294.737 349.898 273.888C398.982 232.444 370.35 195.126 349.898 181.648C366.597 140.709 332.82 120.787 313.844 115.943C312.326 93.1992 291.284 79.0895 280.953 74.8776Z" fill="white" stroke="#BF6C08" stroke-width="5"/>
<path d="M307.992 160.961L256.432 181.259L270.265 121L307.992 160.961ZM307.992 160.961L287.242 203.46L330 225.66M307.992 160.961L330 225.66M330 225.66L323.083 285.919M330 225.66L287.242 246.592V264.353M323.083 285.919L287.242 264.353M323.083 285.919L277.811 317L247 295.434L287.242 264.353" stroke="#BF6C08" stroke-width="6"/>
<path d="M178.565 102C178.354 115.957 185.146 144.252 214 145.774M164.011 121.032C154.942 133.509 124.147 181.935 164.011 199.699M164.011 240.301C144.666 240.301 130.236 243.997 127.311 221.324M127.311 199.699C126.569 208.751 126.6 215.816 127.311 221.324M102 225.075C107.062 222.574 119.211 218.323 127.311 221.324M112.124 265.677C122.46 266.964 147.433 255.28 151.989 240.518M144.395 273.29C145.45 281.961 155.785 297.525 188.689 290.419C177.932 296.129 160.847 313.639 178.565 338M154.52 287.723C150.934 292.798 139.46 305.265 127.311 303.742M164.011 156.559C163.8 161.423 168.441 171.785 188.689 174.323M119.718 167.344C123.514 162.903 133.512 156.686 143.13 167.344" stroke="#1C1C1C" stroke-width="6"/>
<circle cx="272" cy="121" r="10" fill="#BF6C08"/>
<circle cx="307" cy="161" r="10" fill="#BF6C08"/>
<circle cx="307" cy="161" r="10" stroke="black"/>
<circle cx="329" cy="225" r="10" fill="#BF6C08"/>
<circle cx="322" cy="285" r="10" fill="#BF6C08"/>
<circle cx="278" cy="315" r="10" fill="#BF6C08"/>
<path d="M419.34 228.961L397.382 255.754L431.565 261.373L419.34 228.961ZM225.166 419.972L225.166 422.972C308.764 422.972 393.877 368.578 417.896 256.215L414.963 255.588L412.029 254.961C388.618 364.478 306.014 416.972 225.166 416.972L225.166 419.972Z" fill="#BF6C08"/>
<circle cx="225.5" cy="230.5" r="72" fill="#1C1C1C" stroke="#1C1C1C" stroke-width="5"/>
<path d="M225 265.341C218.895 262.805 206.811 254.054 207.316 239.341C207.948 220.951 221.842 212.073 225 207V181C218.577 190.043 190.316 205.87 189.031 238.652C188.004 264.878 212.583 280.478 225 285V265.341Z" fill="#FFFDFA" stroke="white"/>
<circle cx="225" cy="230" r="69.5" stroke="white" stroke-width="3"/>
<ellipse cx="225" cy="237.5" rx="6" ry="6.5" fill="white"/>
<path d="M226 265.341C232.105 262.805 244.189 254.054 243.684 239.341C243.052 220.951 229.158 212.073 226 207V181C232.423 190.043 260.684 205.87 261.969 238.652C262.996 264.878 238.417 280.478 226 285V265.341Z" fill="#FFFDFA" stroke="white"/>
<path d="M599.217 316.645C589.186 316.645 579.701 315.663 570.76 313.701C562.037 311.956 554.95 308.467 549.499 303.234C544.047 298 541.321 290.586 541.321 280.991C541.321 278.374 541.539 275.648 541.975 272.814C542.411 269.761 543.066 266.599 543.938 263.328C546.119 255.695 549.28 247.736 553.424 239.45C557.567 230.945 562.364 222.332 567.816 213.609C577.411 197.69 589.513 181.772 604.124 165.853C618.734 149.716 633.453 134.779 648.282 121.041C636.724 121.259 624.949 122.022 612.955 123.33C601.18 124.421 590.386 125.729 580.573 127.255C570.76 128.782 562.91 130.526 557.022 132.489C549.608 134.67 543.502 137.177 538.704 140.012C534.125 142.847 531.835 145.791 531.835 148.844C531.835 152.769 536.415 156.803 545.573 160.946C546.01 161.165 546.228 161.601 546.228 162.255C546.228 164.217 545.246 164.981 543.284 164.545C537.178 161.928 532.599 159.093 529.546 156.04C526.711 152.769 525.293 149.498 525.293 146.227C525.293 142.302 527.365 138.486 531.508 134.779C535.87 131.072 541.975 128.019 549.826 125.62C553.533 124.53 559.639 123.439 568.143 122.349C576.648 121.041 586.679 119.841 598.236 118.751C609.793 117.661 622.005 116.788 634.871 116.134C647.955 115.48 660.711 115.153 673.141 115.153C685.789 115.153 697.564 115.589 708.468 116.461C719.371 117.334 728.421 118.86 735.617 121.041C742.813 123.003 747.174 125.838 748.701 129.545C749.355 130.854 749.682 132.38 749.682 134.125C749.682 137.832 748.373 141.866 745.757 146.227C743.14 150.37 740.087 154.295 736.598 158.003C735.508 159.093 734.417 159.638 733.327 159.638C732.019 159.638 731.364 158.984 731.364 157.675C731.364 156.803 731.801 155.931 732.673 155.059C738.561 148.953 740.959 143.065 739.869 137.395C739.433 134.343 737.143 131.835 733 129.872C729.075 127.692 724.059 125.947 717.953 124.639C712.066 123.33 705.742 122.349 698.982 121.695C692.222 121.041 685.898 120.714 680.01 120.714C671.288 120.714 664.964 121.259 661.039 122.349C659.076 122.785 655.805 125.075 651.226 129.218C646.646 133.361 641.413 138.486 635.525 144.592C629.855 150.479 624.077 156.694 618.189 163.236C612.519 169.778 607.286 175.775 602.488 181.226C597.691 186.678 594.093 190.821 591.694 193.656C601.943 192.566 611.865 191.694 621.46 191.039C631.273 190.167 641.522 189.731 652.207 189.731C657.441 189.731 662.783 189.84 668.235 190.058C673.904 190.276 679.792 190.712 685.898 191.366C689.387 191.585 691.131 192.348 691.131 193.656C691.131 194.528 690.368 195.292 688.842 195.946C687.315 196.6 686.007 196.927 684.917 196.927C682.082 196.927 679.029 196.927 675.758 196.927C672.705 196.709 669.434 196.6 665.945 196.6C656.786 196.6 647.191 196.818 637.161 197.254C627.13 197.69 617.644 198.345 608.703 199.217C599.762 200.089 592.13 201.07 585.806 202.161C579.046 211.537 572.722 221.786 566.835 232.908C561.165 243.811 557.131 254.387 554.732 264.636C553.424 269.87 552.77 274.667 552.77 279.028C552.77 287.097 554.623 293.421 558.33 298C562.255 302.361 567.38 305.414 573.704 307.159C580.028 308.903 586.897 309.775 594.311 309.775C603.906 309.775 615.136 308.685 628.002 306.505C640.868 304.542 653.842 301.162 666.926 296.365C680.228 291.349 691.895 284.807 701.926 276.739C705.633 273.904 708.904 270.742 711.739 267.253C714.791 263.764 717.517 260.166 719.916 256.459C720.57 255.586 721.115 255.15 721.551 255.15C722.206 255.15 722.533 255.695 722.533 256.786C722.533 257.876 722.206 258.966 721.551 260.057C719.371 263.546 716.972 267.144 714.355 270.851C711.739 274.558 708.904 277.938 705.851 280.991C696.256 290.368 685.462 297.673 673.468 302.906C661.693 308.14 649.372 311.738 636.506 313.701C623.859 315.663 611.429 316.645 599.217 316.645ZM737.748 300.617C732.514 300.617 728.371 298.981 725.318 295.71C722.265 292.221 720.194 287.86 719.103 282.626C718.013 277.393 717.577 272.05 717.795 266.599C718.449 257.222 720.521 246.537 724.01 234.543C727.499 222.55 731.969 210.338 737.421 197.908C743.09 185.261 749.305 173.376 756.065 162.255C763.043 151.134 770.349 141.539 777.981 133.47C785.613 125.402 793.136 119.841 800.55 116.788C802.949 115.698 805.021 115.044 806.765 114.826C808.51 114.39 810.145 114.172 811.672 114.172C816.905 114.172 820.394 116.679 822.139 121.695C823.011 123.439 823.447 125.62 823.447 128.237C823.447 133.47 821.703 139.576 818.214 146.554C815.161 152.878 810.799 160.074 805.13 168.143C799.46 175.993 793.027 184.061 785.831 192.348C778.853 200.416 771.766 208.266 764.57 215.899C757.374 223.313 750.723 229.964 744.617 235.852C738.511 241.739 733.605 246.21 729.898 249.263C728.589 256.459 727.935 263.219 727.935 269.543C727.935 276.303 729.025 282.19 731.206 287.206C733.605 292.221 737.53 294.729 742.981 294.729C748.215 294.729 753.339 292.657 758.355 288.514C763.37 284.371 767.95 279.465 772.093 273.795C776.454 268.125 780.052 263.11 782.887 258.748C783.759 257.876 784.305 257.44 784.523 257.44C785.177 257.44 785.504 257.985 785.504 259.075C785.504 259.948 785.177 260.929 784.523 262.019C780.598 268.125 776.236 274.122 771.439 280.01C766.641 285.897 761.408 290.804 755.738 294.729C750.069 298.654 744.072 300.617 737.748 300.617ZM731.206 243.702C736.003 239.341 742.218 233.126 749.85 225.057C757.701 216.989 765.769 208.048 774.056 198.235C782.56 188.423 790.301 178.828 797.279 169.451C804.258 159.856 809.382 151.352 812.653 143.937C813.961 141.321 815.052 138.486 815.924 135.433C816.796 132.38 817.232 129.545 817.232 126.928C817.232 122.131 815.488 119.732 811.999 119.732C807.201 119.732 800.769 123.548 792.7 131.181C783.759 139.467 775.146 150.043 766.859 162.909C758.573 175.557 751.268 188.968 744.944 203.142C738.838 217.098 734.259 230.618 731.206 243.702ZM804.235 300.617C795.295 300.617 788.753 298.654 784.61 294.729C780.466 290.586 778.395 285.134 778.395 278.374C778.395 276.63 778.504 274.885 778.722 273.141C779.158 271.178 779.594 269.215 780.03 267.253C781.121 263.328 782.865 258.748 785.264 253.515C787.881 248.281 791.042 243.157 794.75 238.141C798.457 233.126 802.491 228.983 806.852 225.712C811.213 222.441 815.793 220.805 820.59 220.805C824.515 220.805 827.459 222.223 829.422 225.057C831.602 227.892 832.693 231.272 832.693 235.197C832.693 239.341 831.384 243.593 828.768 247.954C826.369 252.097 823.098 255.477 818.955 258.094C814.157 261.365 808.706 263.001 802.6 263.001C798.675 263.001 795.077 262.237 791.806 260.711C788.535 267.253 786.899 273.686 786.899 280.01C786.899 284.589 788.208 288.514 790.824 291.785C793.441 295.056 797.802 296.692 803.908 296.692C811.322 296.692 817.864 294.947 823.534 291.458C829.204 287.751 834.437 282.954 839.235 277.066C844.25 271.178 849.048 264.854 853.627 258.094C854.281 257.44 854.717 257.113 854.935 257.113C855.59 257.113 855.917 257.658 855.917 258.748C855.917 259.839 855.59 260.929 854.935 262.019C851.01 268.125 846.54 274.122 841.524 280.01C836.727 285.897 831.275 290.804 825.17 294.729C819.064 298.654 812.086 300.617 804.235 300.617ZM799.329 258.421C804.999 258.421 810.341 256.459 815.357 252.534C817.755 250.789 819.827 248.717 821.572 246.319C823.316 243.92 824.515 241.521 825.17 239.123C825.824 236.724 826.151 234.652 826.151 232.908C826.151 227.892 824.297 225.385 820.59 225.385C818.192 225.385 815.466 226.802 812.413 229.637C809.796 232.035 807.07 235.088 804.235 238.795C801.619 242.503 799.329 246.101 797.366 249.59C795.404 252.861 794.095 255.259 793.441 256.786C794.968 257.876 796.93 258.421 799.329 258.421ZM868.949 299.635C866.551 299.635 864.479 299.09 862.735 298C860.118 296.692 858.264 294.293 857.174 290.804C856.084 287.315 855.538 283.499 855.538 279.355C855.538 275.212 855.866 271.178 856.52 267.253C857.392 263.328 858.264 260.057 859.137 257.44C859.355 256.786 859.573 256.241 859.791 255.805C860.009 255.15 860.227 254.496 860.445 253.842C858.482 256.677 856.738 259.185 855.211 261.365C853.685 263.546 852.595 265.072 851.94 265.945C851.722 266.381 851.286 266.599 850.632 266.599C849.978 266.599 849.433 266.381 848.997 265.945C848.778 265.29 848.997 264.636 849.651 263.982C850.523 262.674 851.94 260.493 853.903 257.44C856.084 254.169 858.482 250.68 861.099 246.973C863.716 243.048 865.897 239.777 867.641 237.16C870.912 232.363 875.382 229.964 881.052 229.964H882.033C882.687 229.964 883.015 230.182 883.015 230.618C883.015 230.836 882.469 231.817 881.379 233.562C879.198 236.615 876.582 240.976 873.529 246.646C870.694 252.315 868.186 258.421 866.006 264.963C864.043 271.287 863.062 277.175 863.062 282.626C863.062 286.988 864.043 290.695 866.006 293.748C866.878 295.056 868.295 295.71 870.258 295.71C872.22 295.71 874.401 294.947 876.8 293.421C879.417 291.894 881.706 290.259 883.669 288.514C888.466 284.589 893.155 279.465 897.734 273.141C902.531 266.817 906.457 260.057 909.509 252.861C912.78 245.665 914.416 238.795 914.416 232.254C914.416 228.765 913.871 225.821 912.78 223.422C911.69 221.023 909.946 219.606 907.547 219.17C906.675 219.17 906.238 218.734 906.238 217.861C906.238 216.553 907.111 215.899 908.855 215.899C913.217 215.899 916.597 217.752 918.995 221.459C921.612 224.948 922.92 229.528 922.92 235.197C922.92 238.25 922.484 241.521 921.612 245.01C920.74 248.499 919.431 251.988 917.687 255.477C914.852 260.929 911.145 266.926 906.566 273.468C901.986 279.792 896.753 285.461 890.865 290.477C884.977 295.274 878.653 298.218 871.893 299.308C871.239 299.526 870.258 299.635 868.949 299.635ZM984.484 300.29C980.558 300.29 977.615 298.981 975.652 296.365C973.907 293.748 973.035 290.368 973.035 286.225C973.035 283.39 973.362 280.555 974.016 277.72C974.235 277.284 974.562 276.303 974.998 274.776C975.434 273.032 976.088 271.069 976.96 268.888C973.907 273.686 969.982 279.028 965.185 284.916C960.606 290.586 955.481 294.838 949.811 297.673C946.54 299.199 943.269 299.963 939.998 299.963C935.637 299.963 932.148 298.327 929.531 295.056C926.915 291.567 925.606 286.77 925.606 280.664C925.606 275.648 926.696 270.306 928.877 264.636C931.058 258.748 934.22 252.752 938.363 246.646C940.98 242.721 944.36 238.905 948.503 235.197C952.646 231.49 957.116 228.437 961.914 226.039C966.711 223.64 971.291 222.441 975.652 222.441C980.013 222.441 983.72 223.64 986.773 226.039C989.826 228.437 991.462 232.035 991.68 236.833C991.68 237.487 991.353 238.032 990.698 238.468C990.262 238.686 989.826 238.359 989.39 237.487C986.773 231.599 982.521 228.655 976.633 228.655C972.708 228.655 968.565 230.509 964.204 234.216C959.842 237.705 955.59 242.175 951.447 247.627C947.304 253.079 943.706 258.53 940.653 263.982C938.036 268.779 936.073 273.141 934.765 277.066C933.675 280.991 933.129 284.371 933.129 287.206C933.129 293.094 935.419 296.037 939.998 296.037C942.397 296.037 945.014 295.274 947.849 293.748C950.466 292.221 953.627 289.495 957.335 285.57C961.26 281.645 965.076 277.284 968.783 272.486C972.708 267.689 976.197 263.001 979.25 258.421C982.521 253.842 984.92 250.244 986.446 247.627C989.717 242.175 993.097 237.378 996.586 233.235C1000.08 229.092 1003.56 227.02 1007.05 227.02C1008.8 227.02 1009.67 227.456 1009.67 228.328C1009.67 229.201 1009.23 230.073 1008.36 230.945C1004 236.179 999.857 242.394 995.932 249.59C992.225 256.568 989.063 263.219 986.446 269.543C984.047 275.866 982.63 280.664 982.194 283.935C981.54 290.913 983.611 294.402 988.409 294.402C989.063 294.402 989.717 294.402 990.371 294.402C991.026 294.184 991.789 293.966 992.661 293.748C997.24 292.221 1001.71 289.386 1006.07 285.243C1010.43 281.1 1014.47 276.63 1018.17 271.832C1021.88 266.817 1024.93 262.455 1027.33 258.748C1027.99 257.876 1028.53 257.44 1028.97 257.44C1029.62 257.44 1029.95 257.985 1029.95 259.075C1029.95 259.73 1029.62 260.602 1028.97 261.692C1027.44 263.873 1026.02 266.054 1024.72 268.234C1023.41 270.197 1022.1 272.05 1020.79 273.795C1020.36 274.667 1019.81 275.43 1019.16 276.085C1018.5 276.739 1017.85 277.502 1017.19 278.374C1014.36 281.863 1010.65 285.679 1006.07 289.823C1001.71 293.748 997.349 296.583 992.988 298.327C989.717 299.635 986.882 300.29 984.484 300.29ZM1029.3 300.29C1025.38 300.29 1022.54 298.981 1020.8 296.365C1019.05 293.748 1018.18 290.477 1018.18 286.552C1018.18 283.499 1018.51 280.555 1019.16 277.72C1019.82 274.667 1021.89 269.652 1025.38 262.674C1028.86 255.477 1032.68 247.954 1036.82 240.104C1034.64 240.976 1032.24 241.957 1029.63 243.048C1027.23 243.92 1025.48 244.901 1024.39 245.992C1023.52 246.428 1022.98 246.646 1022.76 246.646C1022.1 246.646 1021.78 246.21 1021.78 245.337C1021.78 243.375 1022.98 241.521 1025.38 239.777C1027.77 238.032 1030.06 236.833 1032.24 236.179C1034.64 235.525 1037.37 234.761 1040.42 233.889C1042.82 229.528 1045.33 225.057 1047.95 220.478C1050.78 215.681 1053.29 211.537 1055.47 208.048C1057 205.868 1059.18 203.142 1062.01 199.871C1064.85 196.382 1068.01 193.547 1071.5 191.366C1073.46 190.058 1076.08 189.404 1079.35 189.404C1081.75 189.404 1083.05 189.84 1083.27 190.712C1080 191.585 1076.62 193.765 1073.13 197.254C1069.86 200.743 1066.7 204.777 1063.65 209.357C1060.59 213.936 1057.98 218.297 1055.8 222.441C1053.62 226.366 1051.98 229.419 1050.89 231.599C1055.47 230.945 1059.28 230.618 1062.34 230.618C1064.08 230.618 1065.61 230.727 1066.92 230.945C1068.23 230.945 1069.32 231.054 1070.19 231.272C1071.93 231.49 1072.8 232.035 1072.8 232.908C1072.8 233.78 1071.71 234.216 1069.53 234.216C1067.79 234.216 1065.72 234.216 1063.32 234.216C1061.14 234.216 1058.74 234.434 1056.12 234.87C1054.16 235.088 1052.09 235.743 1049.91 236.833C1047.95 237.923 1046.64 239.123 1045.98 240.431C1041.19 249.154 1036.93 257.549 1033.23 265.617C1029.52 273.686 1027.45 279.792 1027.01 283.935C1026.36 290.913 1028.43 294.402 1033.23 294.402C1038.02 294.402 1042.82 292.33 1047.62 288.187C1052.63 283.826 1057.32 278.81 1061.68 273.141C1066.04 267.471 1069.53 262.674 1072.15 258.748C1073.02 257.876 1073.57 257.44 1073.79 257.44C1074.44 257.44 1074.77 257.985 1074.77 259.075C1074.77 259.948 1074.44 260.929 1073.79 262.019C1070.08 267.689 1065.83 273.468 1061.03 279.355C1056.23 285.243 1051.11 290.259 1045.66 294.402C1040.42 298.327 1034.97 300.29 1029.3 300.29ZM1093.32 300.617C1084.38 300.617 1077.84 298.654 1073.69 294.729C1069.55 290.586 1067.48 285.134 1067.48 278.374C1067.48 276.63 1067.59 274.885 1067.81 273.141C1068.24 271.178 1068.68 269.215 1069.11 267.253C1070.21 263.328 1071.95 258.748 1074.35 253.515C1076.97 248.281 1080.13 243.157 1083.83 238.141C1087.54 233.126 1091.58 228.983 1095.94 225.712C1100.3 222.441 1104.88 220.805 1109.67 220.805C1113.6 220.805 1116.54 222.223 1118.51 225.057C1120.69 227.892 1121.78 231.272 1121.78 235.197C1121.78 239.341 1120.47 243.593 1117.85 247.954C1115.45 252.097 1112.18 255.477 1108.04 258.094C1103.24 261.365 1097.79 263.001 1091.68 263.001C1087.76 263.001 1084.16 262.237 1080.89 260.711C1077.62 267.253 1075.98 273.686 1075.98 280.01C1075.98 284.589 1077.29 288.514 1079.91 291.785C1082.53 295.056 1086.89 296.692 1092.99 296.692C1100.41 296.692 1106.95 294.947 1112.62 291.458C1118.29 287.751 1123.52 282.954 1128.32 277.066C1133.33 271.178 1138.13 264.854 1142.71 258.094C1143.37 257.44 1143.8 257.113 1144.02 257.113C1144.67 257.113 1145 257.658 1145 258.748C1145 259.839 1144.67 260.929 1144.02 262.019C1140.09 268.125 1135.62 274.122 1130.61 280.01C1125.81 285.897 1120.36 290.804 1114.25 294.729C1108.15 298.654 1101.17 300.617 1093.32 300.617ZM1088.41 258.421C1094.08 258.421 1099.43 256.459 1104.44 252.534C1106.84 250.789 1108.91 248.717 1110.66 246.319C1112.4 243.92 1113.6 241.521 1114.25 239.123C1114.91 236.724 1115.24 234.652 1115.24 232.908C1115.24 227.892 1113.38 225.385 1109.67 225.385C1107.28 225.385 1104.55 226.802 1101.5 229.637C1098.88 232.035 1096.15 235.088 1093.32 238.795C1090.7 242.503 1088.41 246.101 1086.45 249.59C1084.49 252.861 1083.18 255.259 1082.53 256.786C1084.05 257.876 1086.01 258.421 1088.41 258.421Z" fill="#1C1C1C"/>
<path d="M725.851 405.742L713.697 365.037H720.501L729.514 395.391L738.179 365.037H744.866L753.472 395.1L762.486 365.037H769.347L757.019 405.742H749.867L741.493 375.736L733.003 405.742H725.851ZM787.468 405.742V365.037H794.213V405.742H787.468ZM825.104 405.742V371.2H812.602V365.037H844.352V371.2H831.85V405.742H825.104ZM862.743 405.742V365.037H869.488V381.784H889.957V365.037H896.703V405.742H889.957V387.948H869.488V405.742H862.743ZM945.969 405.742V365.037H960.332C963.123 365.037 965.585 365.579 967.717 366.665C969.849 367.75 971.516 369.262 972.718 371.2C973.92 373.1 974.521 375.31 974.521 377.83C974.521 380.505 973.784 382.869 972.311 384.924C970.838 386.94 968.899 388.432 966.496 389.402L976.149 405.742H968.531L959.808 390.681C959.576 390.72 959.324 390.739 959.053 390.739C958.82 390.739 958.568 390.739 958.297 390.739H952.714V405.742H945.969ZM952.714 384.517H960.623C961.941 384.517 963.104 384.226 964.112 383.645C965.158 383.063 965.992 382.268 966.612 381.261C967.271 380.253 967.601 379.109 967.601 377.83C967.601 375.891 966.903 374.302 965.507 373.061C964.112 371.821 962.309 371.2 960.099 371.2H952.714V384.517ZM1011.31 406.556C1008.1 406.556 1005.27 405.916 1002.82 404.637C1000.42 403.319 998.54 401.478 997.183 399.113C995.865 396.748 995.206 393.995 995.206 390.855V365.037H1001.95V390.855C1001.95 392.755 1002.34 394.422 1003.11 395.856C1003.93 397.252 1005.05 398.357 1006.49 399.171C1007.92 399.946 1009.57 400.334 1011.43 400.334C1013.33 400.334 1015 399.946 1016.43 399.171C1017.9 398.357 1019.03 397.252 1019.8 395.856C1020.58 394.422 1020.97 392.755 1020.97 390.855V365.037H1027.71V390.855C1027.71 393.995 1027.03 396.748 1025.68 399.113C1024.36 401.478 1022.46 403.319 1019.98 404.637C1017.54 405.916 1014.65 406.556 1011.31 406.556ZM1049.58 405.742V365.037H1063.94C1066.74 365.037 1069.2 365.599 1071.33 366.723C1073.46 367.847 1075.13 369.417 1076.33 371.433C1077.53 373.41 1078.13 375.717 1078.13 378.353C1078.13 380.912 1077.57 383.199 1076.45 385.215C1075.32 387.231 1073.75 388.82 1071.74 389.983C1069.76 391.107 1067.45 391.669 1064.82 391.669H1056.33V405.742H1049.58ZM1056.33 385.447H1064.7C1066.64 385.447 1068.23 384.788 1069.47 383.47C1070.71 382.152 1071.33 380.446 1071.33 378.353C1071.33 376.221 1070.63 374.496 1069.24 373.178C1067.84 371.859 1066.04 371.2 1063.83 371.2H1056.33V385.447ZM1092.6 405.742L1108.82 365.037H1115.97L1132.26 405.742H1125.1L1121.09 395.74H1103.7L1099.75 405.742H1092.6ZM1105.97 389.75H1118.82L1112.43 373.468L1105.97 389.75ZM1150.35 405.742V365.037H1157.1V399.578H1175.53V405.742H1150.35ZM1193.98 405.742V365.037H1200.73V405.742H1193.98Z" fill="#BF6C08"/>
<path d="M1173.58 161.387L1176.26 190.801L1197.22 169.991L1180.36 194.245L1209.8 191.776L1181.29 199.521L1205.43 216.548L1178.62 204.162L1186.16 232.718L1173.58 205.994L1161 232.718L1168.55 204.162L1141.73 216.548L1165.87 199.521L1137.37 191.776L1166.8 194.245L1149.94 169.991L1170.9 190.801L1173.58 161.387Z" fill="#BF6C08"/>
<line x1="568.645" y1="387.57" x2="678.968" y2="387.57" stroke="#BF6C08" stroke-width="3.63441"/>
</svg>
