<svg width="800" height="800" viewBox="0 0 400 400" xmlns="http://www.w3.org/2000/svg">
  <title>Elevate with Rupali icon mark</title>
  <desc>Flame icon only, no text</desc>

  <g transform="translate(200, 200)">
    <circle cx="0" cy="0" r="150" fill="#1C1C1C"/>
    <circle cx="0" cy="0" r="150" fill="none" stroke="#C8A96E" stroke-width="2.5"/>
    <circle cx="0" cy="0" r="138" fill="none" stroke="#C8A96E" stroke-width="0.6" opacity="0.3"/>
    <path d="M 0 -103 C 36 -70, 74 -38, 74 13 C 74 64, 41 100, 0 113 C -41 100, -74 64, -74 13 C -74 -38, -36 -70, 0 -103 Z" fill="#C8A96E"/>
    <path d="M 0 -48 C 18 -28, 36 -10, 36 16 C 36 44, 20 64, 0 72 C -20 64, -36 44, -36 16 C -36 -10, -18 -28, 0 -48 Z" fill="#1C1C1C"/>
    <circle cx="0" cy="16" r="13" fill="#C8A96E"/>
  </g>
</svg>
