<svg width="800" height="800" viewBox="0 0 680 500" xmlns="http://www.w3.org/2000/svg">
  <title>Elevate with Rupali logo</title>
  <desc>A bold flame icon in gold and charcoal with wordmark for Elevate with Rupali</desc>

  <g transform="translate(340,185)">

    <circle cx="0" cy="0" r="118" fill="#1C1C1C"/>
    <circle cx="0" cy="0" r="118" fill="none" stroke="#C8A96E" stroke-width="2"/>
    <circle cx="0" cy="0" r="108" fill="none" stroke="#C8A96E" stroke-width="0.5" opacity="0.3"/>

    <path d="
      M 0 -80
      C 28 -55, 58 -30, 58 10
      C 58 50, 32 78, 0 88
      C -32 78, -58 50, -58 10
      C -58 -30, -28 -55, 0 -80
      Z
    " fill="#C8A96E"/>

    <path d="
      M 0 -38
      C 14 -22, 28 -8, 28 12
      C 28 34, 16 50, 0 56
      C -16 50, -28 34, -28 12
      C -28 -8, -14 -22, 0 -38
      Z
    " fill="#1C1C1C"/>

    <circle cx="0" cy="12" r="10" fill="#C8A96E"/>

  </g>

  <text x="340" y="336"
        text-anchor="middle"
        font-family="Georgia,'Times New Roman',serif"
        font-size="30"
        font-weight="400"
        letter-spacing="7"
        fill="#1C1C1C">ELEVATE</text>

  <line x1="250" y1="350" x2="326" y2="350" stroke="#C8A96E" stroke-width="0.8"/>
  <circle cx="340" cy="350" r="3" fill="#C8A96E"/>
  <line x1="354" y1="350" x2="430" y2="350" stroke="#C8A96E" stroke-width="0.8"/>

  <text x="340" y="374"
        text-anchor="middle"
        font-family="Georgia,'Times New Roman',serif"
        font-size="12"
        font-weight="400"
        letter-spacing="10"
        fill="#1C1C1C"
        opacity="0.45">WITH RUPALI</text>

  <line x1="250" y1="394" x2="430" y2="394" stroke="#C8A96E" stroke-width="0.4" opacity="0.4"/>

  <text x="340" y="414"
        text-anchor="middle"
        font-family="Georgia,'Times New Roman',serif"
        font-size="9"
        font-weight="400"
        letter-spacing="3.5"
        fill="#C8A96E">DESIGN  ·  ELEVATE  ·  COMMUNICATE</text>

</svg>
